<?xml version="1.0" encoding="utf-8"?>
<!-- Generator: Adobe Illustrator 26.4.1, SVG Export Plug-In . SVG Version: 6.00 Build 0)  -->
<svg version="1.1" id="Слой_1" xmlns="http://www.w3.org/2000/svg" xmlns:xlink="http://www.w3.org/1999/xlink" x="0px" y="0px"
	 viewBox="0 0 20 20" style="enable-background:new 0 0 20 20;" xml:space="preserve">
<style type="text/css">
	.st0{fill:#1A1A1A;}
</style>
<path class="st0" d="M19.6,4.3c-0.2-0.4-0.4-0.7-0.7-0.9c-0.4-0.4-0.9-0.7-1.5-0.8c-0.1,0-0.6-0.1-0.7-0.1H3.3c-0.1,0-0.6,0-0.6,0.1
	C2.1,2.7,1.6,3,1.1,3.3C0.9,3.6,0.6,3.9,0.4,4.3C0.2,4.8,0,5.4,0,6v8c0,1.9,1.5,3.5,3.3,3.5h13.4c1.8,0,3.3-1.6,3.3-3.5V6
	C20,5.4,19.8,4.8,19.6,4.3z M16.7,4.1c0.1,0,0.2,0,0.3,0l-7,5.2L3,4.1c0.1,0,0.2,0,0.3,0H16.7z M18.5,14c0,1.1-0.8,1.9-1.8,1.9H3.3
	c-1,0-1.8-0.9-1.8-1.9V6c0-0.3,0.1-0.6,0.2-0.8l8.3,6.2l8.4-6.2c0.1,0.2,0.2,0.5,0.2,0.8V14z"/>
</svg>
