<?xml version="1.0" encoding="utf-8"?>
<!-- Generator: Adobe Illustrator 26.4.1, SVG Export Plug-In . SVG Version: 6.00 Build 0)  -->
<svg version="1.1" id="Слой_1" xmlns="http://www.w3.org/2000/svg" xmlns:xlink="http://www.w3.org/1999/xlink" x="0px" y="0px"
	 viewBox="0 0 20 20" style="enable-background:new 0 0 20 20;" xml:space="preserve">
<style type="text/css">
	.st0{fill:#1A1A1A;}
</style>
<path class="st0" d="M8.5,14.6c-2.6-0.3-4.4-2.2-4.4-4.7c0-1,0.4-2.1,0.9-2.8C4.7,6.4,4.8,5,5.1,4.4c0.8-0.1,1.8,0.3,2.5,0.9
	C8.3,5.1,9.1,5,10,5c1,0,1.7,0.1,2.4,0.3c0.6-0.6,1.7-1,2.5-0.9c0.3,0.5,0.3,2,0.1,2.6c0.6,0.8,1,1.8,1,2.8c0,2.5-1.8,4.4-4.4,4.7
	c0.7,0.4,1.1,1.4,1.1,2.5v2.1c0,0.6,0.5,0.9,1.1,0.7c3.5-1.4,6.3-5,6.3-9.6C20,4.7,15.5,0,10,0C4.5,0,0,4.7,0,10.4
	c0,4.5,2.8,8.2,6.5,9.6c0.5,0.2,1-0.2,1-0.7v-1.6c-0.3,0.1-0.6,0.2-0.9,0.2c-1.3,0-2.1-0.7-2.6-2.1c-0.2-0.5-0.4-0.9-0.9-0.9
	c-0.2,0-0.3-0.1-0.3-0.2c0-0.2,0.4-0.4,0.8-0.4c0.6,0,1.1,0.4,1.6,1.1c0.4,0.6,0.8,0.8,1.3,0.8c0.5,0,0.8-0.2,1.2-0.6
	C8,15.1,8.2,14.8,8.5,14.6z"/>
</svg>
